<?xml version="1.0" encoding="utf-8"?>
<!-- Generator: Adobe Illustrator 28.2.0, SVG Export Plug-In . SVG Version: 6.00 Build 0)  -->
<svg version="1.1" id="Layer_1" xmlns="http://www.w3.org/2000/svg" xmlns:xlink="http://www.w3.org/1999/xlink" x="0px" y="0px"
	 viewBox="0 0 502.9 130.2" style="enable-background:new 0 0 502.9 130.2;" xml:space="preserve">
<style type="text/css">
	.st0{fill:url(#SVGID_1_);}
	.st1{fill:url(#SVGID_00000076596169197977226450000005402293045242042503_);}
	.st2{fill:#5A7DA9;}
	.st3{fill:#5C8F87;}
	.st4{fill:#003C4B;}
</style>
<g>
	<g>
		<linearGradient id="SVGID_1_" gradientUnits="userSpaceOnUse" x1="50.7379" y1="28.7633" x2="90.7231" y2="98.0196">
			<stop  offset="0" style="stop-color:#5A7DA9"/>
			<stop  offset="1" style="stop-color:#5C8F87"/>
		</linearGradient>
		<path class="st0" d="M87.4,78H54.1c-2.9,0-5.2,0-6.9,0c-4,0-7.4-0.5-10.5-1.3c-1.5-0.4-2.9-0.9-4.2-1.4c-1.3-0.6-2.5-1.2-3.6-1.9
			c-0.9-0.5-1.6-1.1-2.4-1.7c-0.7-0.6-1.4-1.1-2-1.7c-1.5-1.5-2.7-3.1-3.8-4.7c-0.5-0.8-0.9-1.6-1.3-2.3c-0.3-0.6-0.6-1.2-0.9-1.9
			c-0.5-1.2-0.9-2.3-1.2-3.4c-0.3-1.1-0.6-2.2-0.8-3.2c-0.1-0.4-0.1-0.8-0.2-1.2C16,50.6,16,48.8,16,48.8h38c13.2,0,25.3,0,33.3,0
			c2.9,0,5.2,0,6.9,0c5,0,9.1,0.7,12.6,1.9c2.8,1,5.2,2.2,7.2,3.7c3,2.2,5.2,4.9,6.9,7.6c0.8,1.4,1.5,2.7,2,4.1
			c0.7,1.8,1.2,3.5,1.6,5.1c0.2,0.8,0.3,1.5,0.4,2.2c0.1,0.7,0.2,1.3,0.2,1.9c0.1,0.6,0.1,1,0.1,1.4c0,0.8,0,1.3,0,1.3H87.4z"/>
		
			<linearGradient id="SVGID_00000137822843919410955360000011350381043221136566_" gradientUnits="userSpaceOnUse" x1="117.6092" y1="54.4378" x2="117.6092" y2="62.0292">
			<stop  offset="0" style="stop-color:#5C7DA9"/>
			<stop  offset="1" style="stop-color:#5E8F87"/>
		</linearGradient>
		<path style="fill:url(#SVGID_00000137822843919410955360000011350381043221136566_);" d="M114.2,54.4c3,2.2,5.2,4.9,6.9,7.6
			C119.4,59.3,117.2,56.6,114.2,54.4z"/>
		<path class="st2" d="M16,44.2h54.6V15.1c-17.9,0-17.2,0-23.5,0c-4,0-7.4,0.5-10.5,1.3c-1.5,0.4-2.9,0.9-4.2,1.4
			c-1.3,0.6-2.5,1.2-3.6,1.9c-1.7,1-3.1,2.2-4.3,3.4c-2.1,2.1-3.7,4.3-4.9,6.6c-1.7,3.2-2.6,6.4-3.1,9C16,41.9,16,44.2,16,44.2z"/>
		<path class="st3" d="M70.6,82.5v29.2c17.9,0,17.3,0,23.7,0c31.8,0,31.1-29.2,31.1-29.2H70.6z"/>
		<path class="st3" d="M120.5,106.5c-3.8,3.9-8.5,6.6-14.1,8.1h22.4V90.9C127.7,95.6,125.4,101.6,120.5,106.5z"/>
	</g>
	<g>
		<g>
			<g>
				<path class="st4" d="M147.7,74.9l3-7.3c3.2,2.2,6.4,3.4,9.5,3.4c4.8,0,7.2-1.7,7.2-5c0-1.6-0.6-3-1.7-4.5
					c-1.1-1.4-3.4-3-6.9-4.8c-3.5-1.8-5.9-3.2-7.1-4.3c-1.2-1.1-2.2-2.5-2.8-4c-0.7-1.6-1-3.3-1-5.2c0-3.5,1.3-6.5,3.9-8.8
					c2.6-2.3,5.9-3.5,10-3.5c5.3,0,9.2,1,11.6,3l-2.5,7c-2.9-2-5.9-3.1-9-3.1c-1.9,0-3.3,0.5-4.4,1.5c-1,1-1.5,2.3-1.5,3.9
					c0,2.6,2.9,5.3,8.7,8.2c3.1,1.5,5.3,2.9,6.6,4.1c1.4,1.3,2.4,2.7,3.1,4.4c0.7,1.7,1.1,3.5,1.1,5.6c0,3.7-1.5,6.8-4.4,9.1
					c-2.9,2.4-6.8,3.6-11.8,3.6C155,78.2,151.1,77.1,147.7,74.9z"/>
				<path class="st4" d="M177.8,54.2c0-6.5,1.8-12,5.4-16.5c3.6-4.5,8.3-6.8,14.3-6.8c6.6,0,11.6,2,15.1,6.1
					c3.5,4.1,5.2,9.8,5.2,17.2c0,7.4-1.8,13.2-5.4,17.5c-3.6,4.3-8.8,6.5-15.5,6.5c-6.1,0-10.9-2.1-14.1-6.4
					C179.5,67.5,177.8,61.6,177.8,54.2z M186.3,54.2c0,5.3,0.9,9.5,2.7,12.4c1.8,2.9,4.4,4.4,7.9,4.4c4.1,0,7.2-1.4,9.3-4.3
					c2.1-2.9,3.2-7,3.2-12.5c0-10.7-4-16.1-11.9-16.1c-3.6,0-6.4,1.5-8.3,4.4C187.2,45.4,186.3,49.3,186.3,54.2z"/>
				<path class="st4" d="M222.4,31.7h8.1v31c0,2.5,0.7,4.5,2.2,6c1.5,1.5,3.6,2.3,6.2,2.3c2.9,0,5.2-0.8,6.9-2.3s2.5-3.6,2.5-6.2
					V31.7h8.1v31.5c0,4.7-1.6,8.4-4.7,11.1c-3.2,2.7-7.4,4-12.6,4c-5.3,0-9.4-1.3-12.3-3.9c-2.9-2.6-4.3-6.3-4.3-11.2V31.7z"/>
				<path class="st4" d="M283.1,38.9v38.5H275V38.9h-14.6v-7.2h37.9v7.2H283.1z"/>
				<path class="st4" d="M328.7,77.4V56.8h-18.2v20.6h-8.1V31.7h8.1v17.9h18.2V31.7h8v45.8H328.7z"/>
				<path class="st4" d="M352.9,38.9v10.7H368v6.9h-15.1v13.7h20.7v7.2h-28.9V31.7H374v7.2H352.9z"/>
				<path class="st4" d="M407.9,77.4l-3.3-9.3h-15.7l-3.2,9.3h-9l18.2-46.4h3.6l18.4,46.4H407.9z M396.7,45.1L391.2,62h11
					L396.7,45.1z"/>
				<path class="st4" d="M419.5,74.9l3-7.3c3.2,2.2,6.4,3.4,9.5,3.4c4.8,0,7.2-1.7,7.2-5c0-1.6-0.6-3-1.7-4.5s-3.4-3-6.9-4.8
					c-3.5-1.8-5.9-3.2-7.1-4.3c-1.2-1.1-2.2-2.5-2.8-4c-0.7-1.6-1-3.3-1-5.2c0-3.5,1.3-6.5,3.9-8.8c2.6-2.3,5.9-3.5,10-3.5
					c5.3,0,9.2,1,11.7,3l-2.5,7c-2.9-2-5.9-3.1-9-3.1c-1.9,0-3.3,0.5-4.4,1.5c-1,1-1.5,2.3-1.5,3.9c0,2.6,2.9,5.3,8.7,8.2
					c3.1,1.5,5.3,2.9,6.6,4.1c1.4,1.3,2.4,2.7,3.1,4.4c0.7,1.7,1.1,3.5,1.1,5.6c0,3.7-1.5,6.8-4.4,9.1c-2.9,2.4-6.8,3.6-11.8,3.6
					C426.8,78.2,422.9,77.1,419.5,74.9z"/>
				<path class="st4" d="M471.7,38.9v38.5h-8.1V38.9H449v-7.2h37.9v7.2H471.7z"/>
			</g>
			<g>
				<path class="st4" d="M155.6,92v7.2h8.5v3h-8.5v9.3h11.7v3.2H152V88.8h15.4V92H155.6z"/>
				<path class="st4" d="M206.9,115l-13.4-18.9v18.5h-3.4V88.8h1.4l13,17.9V88.8h3.4V115H206.9z"/>
				<path class="st4" d="M249.9,90.6l-1.5,2.9c-1.8-1.3-3.5-2-5.2-2c-2.7,0-4.8,1-6.4,2.9c-1.6,1.9-2.3,4.4-2.3,7.6
					c0,3,0.8,5.4,2.3,7.2c1.5,1.8,3.6,2.7,6.3,2.7c1.9,0,3.4-0.6,4.6-1.7v-6.1H244v-3h7.1v11.3c-0.9,0.8-2.3,1.4-3.9,1.9
					c-1.7,0.5-3.3,0.7-4.9,0.7c-3.6,0-6.4-1.2-8.4-3.6c-2.1-2.4-3.1-5.6-3.1-9.6c0-4,1.1-7.2,3.4-9.7c2.3-2.5,5.3-3.7,9.2-3.7
					C246,88.3,248.2,89.1,249.9,90.6z"/>
				<path class="st4" d="M275.9,114.6V88.8h3.5v25.8H275.9z"/>
				<path class="st4" d="M320.8,115l-13.4-18.9v18.5h-3.4V88.8h1.4l13,17.9V88.8h3.4V115H320.8z"/>
				<path class="st4" d="M349.4,92v7.2h8.5v3h-8.5v9.3h11.7v3.2h-15.2V88.8h15.4V92H349.4z"/>
				<path class="st4" d="M387.6,92v7.2h8.5v3h-8.5v9.3h11.7v3.2H384V88.8h15.4V92H387.6z"/>
				<path class="st4" d="M436.5,114.6l-6.9-11.1c-0.8,0-2-0.1-3.7-0.2v11.3h-3.5V88.8c0.1,0,1,0,2.7-0.1c1.7-0.1,2.9-0.1,3.7-0.1
					c6.2,0,9.3,2.5,9.3,7.4c0,1.6-0.5,3.1-1.5,4.4c-1,1.3-2.2,2.1-3.6,2.4l7.5,11.9H436.5z M425.9,92v8.4c0.8,0.1,1.7,0.2,2.5,0.2
					c2.1,0,3.7-0.3,4.6-1c1-0.7,1.4-1.9,1.4-3.7c0-1.4-0.5-2.5-1.6-3.1c-1-0.6-2.7-1-4.9-1C427.6,91.8,426.9,91.8,425.9,92z"/>
				<path class="st4" d="M460.8,113.4l1.3-3.2c0.7,0.5,1.5,0.9,2.5,1.2c1,0.3,1.9,0.5,2.6,0.5c1.4,0,2.5-0.4,3.3-1.1
					c0.8-0.8,1.3-1.7,1.3-2.9c0-0.9-0.2-1.7-0.7-2.4c-0.5-0.7-1.6-1.6-3.5-2.4l-2.1-1c-1.8-0.8-3-1.8-3.7-2.9
					c-0.7-1.1-1.1-2.5-1.1-4.1c0-1.9,0.7-3.5,2-4.8c1.4-1.3,3.1-1.9,5.3-1.9c2.9,0,4.8,0.5,6,1.4l-1,3.1c-0.5-0.3-1.2-0.7-2.2-1
					c-1-0.3-1.9-0.5-2.7-0.5c-1.2,0-2.1,0.3-2.8,1s-1,1.6-1,2.6c0,0.7,0.1,1.3,0.4,1.8c0.2,0.5,0.6,1,1,1.4c0.4,0.4,1.3,0.9,2.7,1.5
					l2.1,1c1.8,0.8,3,1.8,3.7,3c0.7,1.2,1.1,2.6,1.1,4.4c0,1.9-0.8,3.6-2.3,4.9c-1.6,1.4-3.6,2-6.3,2
					C464.4,115.1,462.5,114.5,460.8,113.4z"/>
			</g>
		</g>
	</g>
</g>
</svg>
