<?xml version="1.0" encoding="UTF-8"?>
<svg id="Layer_2" data-name="Layer 2" xmlns="http://www.w3.org/2000/svg" xmlns:xlink="http://www.w3.org/1999/xlink" viewBox="0 0 372.44 99.63">
  <defs>
    <style>
      .cls-1 {
        fill: #5b7fac;
      }

      .cls-2 {
        fill: url(#linear-gradient-2);
      }

      .cls-3 {
        fill: url(#linear-gradient);
      }

      .cls-4 {
        fill: #5b8f87;
      }

      .cls-5 {
        fill: #003d4c;
      }
    </style>
    <linearGradient id="linear-gradient" x1="34.67" y1="-307.14" x2="74.65" y2="-376.39" gradientTransform="translate(0 -293.45) scale(1 -1)" gradientUnits="userSpaceOnUse">
      <stop offset="0" stop-color="#5b7fac"/>
      <stop offset="1" stop-color="#5b8f87"/>
    </linearGradient>
    <linearGradient id="linear-gradient-2" x1="101.65" y1="-332.79" x2="101.65" y2="-340.38" gradientTransform="translate(0 -293.45) scale(1 -1)" gradientUnits="userSpaceOnUse">
      <stop offset="0" stop-color="#5d7eaa"/>
      <stop offset="1" stop-color="#5e8f88"/>
    </linearGradient>
  </defs>
  <g id="Layer_1-2" data-name="Layer 1">
    <g>
      <g>
        <path class="cls-3" d="M71.4,62.9H31.2c-4,0-7.4-.5-10.5-1.3-1.5-.4-2.9-.9-4.2-1.4-1.3-.6-2.5-1.2-3.6-1.9-.9-.5-1.6-1.1-2.4-1.7-.7-.6-1.4-1.1-2-1.7-1.5-1.5-2.7-3.1-3.8-4.7-.5-.8-.9-1.6-1.3-2.3-.3-.6-.6-1.2-.9-1.9-.5-1.2-.9-2.3-1.2-3.4-.3-1.1-.6-2.2-.8-3.2-.1-.4-.1-.8-.2-1.2-.3-2.7-.3-4.5-.3-4.5h78.2c5,0,9.1.7,12.6,1.9,2.8,1,5.2,2.2,7.2,3.7,3,2.2,5.2,4.9,6.9,7.6.8,1.4,1.5,2.7,2,4.1.7,1.8,1.2,3.5,1.6,5.1.2.8.3,1.5.4,2.2s.2,1.3.2,1.9c.1.6.1,1,.1,1.4v1.3h-37.8Z"/>
        <path class="cls-2" d="M98.2,39.3c3,2.2,5.2,4.9,6.9,7.6-1.7-2.7-3.9-5.4-6.9-7.6Z"/>
        <path class="cls-1" d="M0,29.1h54.6V0h-23.5c-4,0-7.4.5-10.5,1.3-1.5.4-2.9.9-4.2,1.4-1.3.6-2.5,1.2-3.6,1.9-1.7,1-3.1,2.2-4.3,3.4-2.1,2.1-3.7,4.3-4.9,6.6-1.7,3.2-2.6,6.4-3.1,9-.5,3.2-.5,5.5-.5,5.5Z"/>
        <path class="cls-4" d="M54.6,67.4v29.2h23.7c31.8,0,31.1-29.2,31.1-29.2h-54.8Z"/>
        <path class="cls-4" d="M104.5,91.4c-3.8,3.9-8.5,6.6-14.1,8.1h22.4v-23.7c-1.1,4.7-3.4,10.7-8.3,15.6Z"/>
      </g>
      <g>
        <path class="cls-5" d="M135.9,44.53l2.09-5.07c2.24,1.57,4.44,2.35,6.6,2.35,3.32,0,4.99-1.16,4.99-3.48,0-1.09-.39-2.13-1.18-3.11s-2.4-2.09-4.85-3.32c-2.45-1.23-4.09-2.24-4.94-3.03-.85-.79-1.5-1.73-1.96-2.82-.46-1.09-.69-2.29-.69-3.61,0-2.47.9-4.52,2.71-6.14,1.81-1.63,4.13-2.44,6.96-2.44,3.69,0,6.39.69,8.12,2.07l-1.72,4.88c-1.99-1.42-4.09-2.13-6.29-2.13-1.31,0-2.32.34-3.04,1.03-.72.69-1.08,1.59-1.08,2.69,0,1.83,2.03,3.73,6.08,5.7,2.13,1.05,3.67,2.01,4.62,2.89.94.88,1.66,1.9,2.16,3.07.49,1.17.74,2.47.74,3.91,0,2.58-1.02,4.71-3.06,6.38-2.04,1.67-4.77,2.51-8.2,2.51-2.98,0-5.66-.77-8.06-2.31Z"/>
        <path class="cls-5" d="M156.92,30.07c0-4.54,1.24-8.39,3.73-11.53,2.49-3.14,5.82-4.71,9.98-4.71,4.59,0,8.09,1.42,10.52,4.27,2.42,2.85,3.64,6.84,3.64,11.98s-1.27,9.22-3.8,12.24-6.13,4.53-10.79,4.53c-4.28,0-7.57-1.5-9.85-4.49-2.29-2.99-3.43-7.08-3.43-12.28ZM162.8,30.07c0,3.73.63,6.62,1.89,8.67,1.26,2.05,3.1,3.07,5.51,3.07,2.83,0,4.99-1,6.48-3.01,1.49-2,2.23-4.91,2.23-8.73,0-7.48-2.76-11.22-8.27-11.22-2.53,0-4.46,1.01-5.81,3.04-1.35,2.02-2.03,4.75-2.03,8.18Z"/>
        <path class="cls-5" d="M188.01,14.39h5.66v21.62c0,1.71.52,3.11,1.57,4.18,1.05,1.07,2.48,1.61,4.31,1.61,2.05,0,3.64-.53,4.78-1.58s1.71-2.49,1.71-4.32V14.39h5.66v21.95c0,3.28-1.1,5.85-3.3,7.71-2.2,1.86-5.14,2.79-8.81,2.79s-6.56-.91-8.57-2.72c-2.01-1.81-3.02-4.41-3.02-7.8V14.39Z"/>
        <path class="cls-5" d="M230.33,19.42v26.87h-5.66v-26.87h-10.15v-5.03h26.41v5.03h-10.6Z"/>
        <path class="cls-5" d="M262.1,46.29v-14.37h-12.7v14.37h-5.66V14.39h5.66v12.5h12.7v-12.5h5.6v31.9h-5.6Z"/>
        <path class="cls-5" d="M279,19.42v7.47h10.54v4.81h-10.54v9.56h14.46v5.03h-20.12V14.39h20.36v5.03h-14.7Z"/>
        <path class="cls-5" d="M317.32,46.29l-2.33-6.47h-10.93l-2.22,6.47h-6.29l12.72-32.34h2.48l12.83,32.34h-6.25ZM309.51,23.71l-3.83,11.78h7.67l-3.83-11.78Z"/>
        <path class="cls-5" d="M325.42,44.53l2.09-5.07c2.24,1.57,4.44,2.35,6.6,2.35,3.32,0,4.99-1.16,4.99-3.48,0-1.09-.39-2.13-1.18-3.11s-2.4-2.09-4.85-3.32c-2.45-1.23-4.09-2.24-4.94-3.03-.85-.79-1.5-1.73-1.96-2.82-.46-1.09-.69-2.29-.69-3.61,0-2.47.9-4.52,2.71-6.14s4.13-2.44,6.96-2.44c3.69,0,6.39.69,8.12,2.07l-1.72,4.88c-1.99-1.42-4.09-2.13-6.29-2.13-1.31,0-2.32.34-3.04,1.03-.72.69-1.08,1.59-1.08,2.69,0,1.83,2.02,3.73,6.08,5.7,2.13,1.05,3.67,2.01,4.62,2.89.94.88,1.66,1.9,2.16,3.07.49,1.17.74,2.47.74,3.91,0,2.58-1.02,4.71-3.06,6.38-2.04,1.67-4.77,2.51-8.2,2.51-2.98,0-5.66-.77-8.06-2.31Z"/>
        <path class="cls-5" d="M361.84,19.42v26.87h-5.66v-26.87h-10.15v-5.03h26.41v5.03h-10.61Z"/>
      </g>
      <g>
        <path class="cls-5" d="M140.72,56.39v5.27h6.26v2.2h-6.26v6.83h8.59v2.33h-11.18v-18.96h11.32v2.33h-8.74Z"/>
        <path class="cls-5" d="M167.03,73.28l-9.8-13.86v13.6h-2.46v-18.96h1.03l9.54,13.11v-13.11h2.46v19.22h-.78Z"/>
        <path class="cls-5" d="M187.26,55.38l-1.07,2.13c-1.3-.97-2.58-1.45-3.83-1.45-1.98,0-3.55.7-4.7,2.1-1.15,1.4-1.72,3.25-1.72,5.55s.56,3.96,1.69,5.29c1.13,1.34,2.66,2.01,4.6,2.01,1.38,0,2.5-.41,3.35-1.24v-4.44h-2.63v-2.2h5.22v8.26c-.69.59-1.65,1.06-2.89,1.42-1.23.36-2.43.54-3.6.54-2.61,0-4.68-.89-6.19-2.66-1.51-1.77-2.27-4.13-2.27-7.07s.83-5.31,2.49-7.14c1.66-1.83,3.9-2.74,6.72-2.74,1.98,0,3.59.55,4.83,1.64Z"/>
        <path class="cls-5" d="M194.94,73.02v-18.96h2.59v18.96h-2.59Z"/>
        <path class="cls-5" d="M216.56,73.28l-9.8-13.86v13.6h-2.46v-18.96h1.03l9.54,13.11v-13.11h2.46v19.22h-.78Z"/>
        <path class="cls-5" d="M226.24,56.39v5.27h6.27v2.2h-6.27v6.83h8.59v2.33h-11.18v-18.96h11.33v2.33h-8.74Z"/>
        <path class="cls-5" d="M242.88,56.39v5.27h6.27v2.2h-6.27v6.83h8.59v2.33h-11.18v-18.96h11.33v2.33h-8.74Z"/>
        <path class="cls-5" d="M267.45,73.02l-5.06-8.14c-.58,0-1.49-.04-2.74-.13v8.27h-2.59v-18.96c.09,0,.77-.03,2.01-.1,1.25-.06,2.16-.1,2.72-.1,4.56,0,6.83,1.81,6.83,5.43,0,1.19-.37,2.26-1.1,3.22-.73.95-1.6,1.55-2.62,1.78l5.5,8.72h-2.96ZM259.65,56.39v6.16c.62.09,1.22.13,1.81.13,1.55,0,2.68-.25,3.39-.75.71-.5,1.06-1.39,1.06-2.68,0-1.06-.38-1.83-1.14-2.29s-1.96-.7-3.6-.7c-.26,0-.77.04-1.53.13Z"/>
        <path class="cls-5" d="M273.94,72.15l.94-2.38c.48.35,1.09.65,1.8.89.72.24,1.37.36,1.94.36,1.01,0,1.82-.28,2.43-.83s.92-1.26.92-2.11c0-.64-.17-1.23-.51-1.78s-1.2-1.15-2.57-1.79l-1.53-.71c-1.29-.6-2.2-1.32-2.71-2.15-.51-.83-.77-1.83-.77-2.99,0-1.42.5-2.59,1.5-3.52s2.29-1.4,3.86-1.4c2.1,0,3.55.34,4.37,1.02l-.76,2.25c-.34-.25-.87-.49-1.58-.72-.71-.23-1.36-.35-1.97-.35-.88,0-1.57.25-2.08.75s-.76,1.14-.76,1.93c0,.48.09.92.27,1.32.18.4.43.73.76,1s.99.64,1.99,1.13l1.55.74c1.29.61,2.2,1.34,2.72,2.19s.78,1.93.78,3.24c0,1.42-.57,2.63-1.72,3.62-1.14.99-2.67,1.49-4.59,1.49-1.68,0-3.12-.4-4.31-1.19Z"/>
        <path class="cls-4" d="M305.71,72.36c-1.25.61-2.76.92-4.53.92s-3.2-.53-4.18-1.6c-.98-1.07-1.48-2.57-1.48-4.52,0-1,.15-1.87.45-2.6.3-.73.84-1.49,1.64-2.28-1.22-1.21-1.83-2.46-1.83-3.77s.5-2.45,1.49-3.38c1-.94,2.33-1.4,4-1.4,1.78,0,3.15.39,4.12,1.18l-1.07,1.99c-.98-.82-1.86-1.23-2.64-1.23-2.3,0-3.44,1.04-3.44,3.11,0,1.12.5,2.07,1.5,2.85h4.81v-2.37l2.46-.94v3.35h3.22v2.07h-3.22v4.27c0,1.19.16,2,.48,2.43.32.43.87.65,1.66.65.47,0,1.01-.16,1.64-.48l.35,2.29c-.91.26-1.94.39-3.11.39-.8,0-1.58-.31-2.33-.92ZM304.56,68.95v-5.23h-5.22c-.82,1.05-1.23,2.16-1.23,3.31,0,2.69,1.32,4.04,3.95,4.04,1.17,0,2.05-.21,2.64-.63-.09-.4-.14-.89-.14-1.49Z"/>
        <path class="cls-5" d="M138.13,99.31v-18.96h2.59v16.63h8.57v2.33h-11.16Z"/>
        <path class="cls-5" d="M164.76,99.31l-1.31-4h-7.05l-1.4,4h-2.9l7.7-19.22h.69l7.14,19.22h-2.87ZM160.02,85.06l-2.94,8.35h5.63l-2.69-8.35Z"/>
        <path class="cls-5" d="M184.32,99.57l-9.8-13.86v13.6h-2.46v-18.96h1.03l9.54,13.11v-13.11h2.46v19.22h-.78Z"/>
        <path class="cls-5" d="M195.24,99.31h-3.82v-18.96c2.43-.09,3.99-.13,4.67-.13,2.65,0,4.75.8,6.29,2.41,1.54,1.61,2.32,3.75,2.32,6.42,0,6.83-3.15,10.25-9.46,10.25ZM194.01,82.68v14.17c.58.09,1.29.13,2.15.13,1.81,0,3.24-.68,4.27-2.04,1.04-1.36,1.55-3.25,1.55-5.66,0-4.49-2.01-6.73-6.04-6.73-.24,0-.88.04-1.93.13Z"/>
        <path class="cls-5" d="M219.68,98.44l.94-2.38c.48.35,1.09.65,1.81.89.72.24,1.37.36,1.93.36,1.01,0,1.82-.28,2.43-.83s.92-1.26.92-2.11c0-.64-.17-1.23-.51-1.78-.34-.55-1.2-1.15-2.57-1.79l-1.53-.71c-1.29-.6-2.2-1.32-2.71-2.15-.51-.83-.77-1.83-.77-2.99,0-1.42.5-2.59,1.5-3.52s2.29-1.4,3.86-1.4c2.1,0,3.55.34,4.37,1.02l-.76,2.25c-.34-.25-.87-.49-1.58-.72-.71-.23-1.36-.35-1.97-.35-.88,0-1.57.25-2.08.75-.5.5-.76,1.14-.76,1.93,0,.48.09.92.27,1.32.18.4.43.73.76,1s.99.64,1.99,1.13l1.55.74c1.29.61,2.2,1.34,2.72,2.19s.78,1.93.78,3.24c0,1.42-.57,2.63-1.71,3.62-1.14.99-2.67,1.49-4.59,1.49-1.68,0-3.12-.4-4.31-1.19Z"/>
        <path class="cls-5" d="M235.72,80.35h2.59v12.98c0,1.16.37,2.11,1.1,2.85.73.75,1.7,1.12,2.91,1.12,1.28,0,2.28-.36,3.02-1.09.73-.72,1.1-1.71,1.1-2.95v-12.92h2.59v13.19c0,1.92-.6,3.41-1.79,4.48-1.19,1.07-2.82,1.61-4.89,1.61s-3.76-.53-4.9-1.58c-1.15-1.05-1.72-2.56-1.72-4.53v-13.18Z"/>
        <path class="cls-5" d="M265.87,99.31l-5.06-8.14c-.58,0-1.49-.04-2.74-.13v8.27h-2.59v-18.96c.09,0,.77-.03,2.01-.1,1.25-.06,2.16-.1,2.72-.1,4.56,0,6.83,1.81,6.83,5.43,0,1.19-.37,2.26-1.1,3.22-.73.95-1.6,1.55-2.62,1.78l5.5,8.72h-2.96ZM258.07,82.68v6.16c.62.09,1.22.13,1.81.13,1.55,0,2.68-.25,3.39-.75.71-.5,1.06-1.39,1.06-2.68,0-1.06-.38-1.83-1.14-2.29s-1.96-.7-3.6-.7c-.26,0-.77.04-1.53.13Z"/>
        <path class="cls-5" d="M278.6,99.57h-1.31l-7.07-19.22h2.87l4.88,13.96,4.7-13.96h2.78l-6.86,19.22Z"/>
        <path class="cls-5" d="M292.59,82.68v5.27h6.26v2.2h-6.26v6.83h8.59v2.33h-11.18v-18.96h11.32v2.33h-8.74Z"/>
        <path class="cls-5" d="M313.57,90.82v8.49h-2.59v-8.49l-6.11-10.47h2.67l4.72,8.28,4.72-8.28h2.67l-6.08,10.47Z"/>
        <path class="cls-5" d="M323.29,89.67c0-2.74.69-5.04,2.06-6.88,1.38-1.85,3.23-2.77,5.57-2.77,2.63,0,4.65.85,6.05,2.55,1.4,1.7,2.1,4.07,2.1,7.11s-.7,5.55-2.11,7.32c-1.41,1.76-3.42,2.65-6.04,2.65-2.39,0-4.26-.93-5.61-2.8-1.35-1.86-2.03-4.25-2.03-7.17ZM326.01,89.67c0,2.17.43,3.99,1.29,5.45.86,1.46,2.07,2.19,3.63,2.19,1.77,0,3.12-.67,4.05-2.01.93-1.34,1.39-3.21,1.39-5.63,0-4.88-1.81-7.33-5.44-7.33-1.6,0-2.82.66-3.66,1.97-.84,1.31-1.26,3.1-1.26,5.36Z"/>
        <path class="cls-5" d="M355.02,99.31l-5.06-8.14c-.58,0-1.49-.04-2.74-.13v8.27h-2.59v-18.96c.09,0,.77-.03,2.01-.1,1.25-.06,2.16-.1,2.72-.1,4.56,0,6.83,1.81,6.83,5.43,0,1.19-.37,2.26-1.1,3.22-.73.95-1.6,1.55-2.62,1.78l5.5,8.72h-2.96ZM347.21,82.68v6.16c.62.09,1.22.13,1.81.13,1.55,0,2.68-.25,3.39-.75.71-.5,1.06-1.39,1.06-2.68,0-1.06-.38-1.83-1.14-2.29s-1.96-.7-3.6-.7c-.26,0-.77.04-1.53.13Z"/>
        <path class="cls-5" d="M361.51,98.44l.94-2.38c.48.35,1.09.65,1.8.89.72.24,1.37.36,1.94.36,1.01,0,1.82-.28,2.43-.83s.92-1.26.92-2.11c0-.64-.17-1.23-.51-1.78s-1.2-1.15-2.57-1.79l-1.53-.71c-1.29-.6-2.2-1.32-2.71-2.15-.51-.83-.77-1.83-.77-2.99,0-1.42.5-2.59,1.5-3.52s2.29-1.4,3.86-1.4c2.1,0,3.55.34,4.37,1.02l-.76,2.25c-.34-.25-.87-.49-1.58-.72-.71-.23-1.36-.35-1.97-.35-.88,0-1.57.25-2.08.75s-.76,1.14-.76,1.93c0,.48.09.92.27,1.32.18.4.43.73.76,1s.99.64,1.99,1.13l1.55.74c1.29.61,2.2,1.34,2.72,2.19s.78,1.93.78,3.24c0,1.42-.57,2.63-1.72,3.62-1.14.99-2.67,1.49-4.59,1.49-1.68,0-3.12-.4-4.31-1.19Z"/>
      </g>
    </g>
  </g>
</svg>